<mxfile host="65bd71144e">
    <diagram name="Página-1" id="az-p8Dzunt0jI1l8muAF">
        <mxGraphModel dx="434" dy="354" grid="1" gridSize="10" guides="1" tooltips="1" connect="1" arrows="1" fold="1" page="1" pageScale="1" pageWidth="827" pageHeight="1169" math="0" shadow="0">
            <root>
                <mxCell id="0"/>
                <mxCell id="1" parent="0"/>
                <mxCell id="-QI1ngQj7JyaiWc21U72-3" style="edgeStyle=orthogonalEdgeStyle;rounded=0;orthogonalLoop=1;jettySize=auto;html=1;entryX=0;entryY=0.5;entryDx=0;entryDy=0;" parent="1" source="-QI1ngQj7JyaiWc21U72-1" target="-QI1ngQj7JyaiWc21U72-2" edge="1">
                    <mxGeometry relative="1" as="geometry"/>
                </mxCell>
                <mxCell id="-QI1ngQj7JyaiWc21U72-1" value="Usuário" style="shape=umlActor;verticalLabelPosition=bottom;verticalAlign=top;html=1;outlineConnect=0;" parent="1" vertex="1">
                    <mxGeometry x="90" y="130" width="30" height="60" as="geometry"/>
                </mxCell>
                <mxCell id="-QI1ngQj7JyaiWc21U72-2" value="" style="image;html=1;image=img/lib/clip_art/computers/Monitor_Tower_128x128.png" parent="1" vertex="1">
                    <mxGeometry x="210" y="120" width="80" height="80" as="geometry"/>
                </mxCell>
                <mxCell id="-QI1ngQj7JyaiWc21U72-6" style="edgeStyle=orthogonalEdgeStyle;rounded=0;orthogonalLoop=1;jettySize=auto;html=1;entryX=1;entryY=0.75;entryDx=0;entryDy=0;exitX=0.5;exitY=1;exitDx=0;exitDy=0;" parent="1" source="-QI1ngQj7JyaiWc21U72-7" target="-QI1ngQj7JyaiWc21U72-2" edge="1">
                    <mxGeometry relative="1" as="geometry"/>
                </mxCell>
                <mxCell id="-QI1ngQj7JyaiWc21U72-4" value="" style="image;html=1;image=img/lib/clip_art/computers/Network_128x128.png" parent="1" vertex="1">
                    <mxGeometry x="710" y="420" width="80" height="80" as="geometry"/>
                </mxCell>
                <mxCell id="-QI1ngQj7JyaiWc21U72-5" style="edgeStyle=orthogonalEdgeStyle;rounded=0;orthogonalLoop=1;jettySize=auto;html=1;entryX=0.02;entryY=0.373;entryDx=0;entryDy=0;entryPerimeter=0;" parent="1" source="-QI1ngQj7JyaiWc21U72-8" target="-QI1ngQj7JyaiWc21U72-4" edge="1">
                    <mxGeometry relative="1" as="geometry"/>
                </mxCell>
                <mxCell id="-QI1ngQj7JyaiWc21U72-9" value="" style="edgeStyle=orthogonalEdgeStyle;rounded=0;orthogonalLoop=1;jettySize=auto;html=1;entryX=0.02;entryY=0.373;entryDx=0;entryDy=0;entryPerimeter=0;" parent="1" source="-QI1ngQj7JyaiWc21U72-2" target="-QI1ngQj7JyaiWc21U72-8" edge="1">
                    <mxGeometry relative="1" as="geometry">
                        <mxPoint x="290" y="160" as="sourcePoint"/>
                        <mxPoint x="712" y="450" as="targetPoint"/>
                    </mxGeometry>
                </mxCell>
                <mxCell id="-QI1ngQj7JyaiWc21U72-8" value="GET://CAMINHO&lt;div&gt;BODY { DADOS }&lt;/div&gt;" style="rounded=1;whiteSpace=wrap;html=1;" parent="1" vertex="1">
                    <mxGeometry x="680" y="130" width="120" height="60" as="geometry"/>
                </mxCell>
                <mxCell id="-QI1ngQj7JyaiWc21U72-10" value="" style="edgeStyle=orthogonalEdgeStyle;rounded=0;orthogonalLoop=1;jettySize=auto;html=1;entryX=1;entryY=0.75;entryDx=0;entryDy=0;exitX=0.5;exitY=1;exitDx=0;exitDy=0;" parent="1" source="-QI1ngQj7JyaiWc21U72-4" target="-QI1ngQj7JyaiWc21U72-7" edge="1">
                    <mxGeometry relative="1" as="geometry">
                        <mxPoint x="750" y="500" as="sourcePoint"/>
                        <mxPoint x="290" y="180" as="targetPoint"/>
                    </mxGeometry>
                </mxCell>
                <mxCell id="-QI1ngQj7JyaiWc21U72-7" value="200 OK&lt;div&gt;BODY { HTML, CSS, JAVASCRIPT, IMAGENS, VIDEOS}&lt;/div&gt;" style="rounded=1;whiteSpace=wrap;html=1;" parent="1" vertex="1">
                    <mxGeometry x="390" y="330" width="120" height="60" as="geometry"/>
                </mxCell>
            </root>
        </mxGraphModel>
    </diagram>
</mxfile>